<svg width="51" height="16" viewBox="0 0 51 16" fill="none" xmlns="http://www.w3.org/2000/svg">
<path d="M10.7506 15.3216C12.8684 15.3216 14.5853 13.5267 14.5853 11.3126C14.5853 9.09857 12.8684 7.30371 10.7506 7.30371C8.63284 7.30371 6.91602 9.09857 6.91602 11.3126C6.91602 13.5267 8.63284 15.3216 10.7506 15.3216Z" fill="#97CF26"/>
<path d="M3.54275 13.1787C4.52854 13.1787 5.32769 12.3432 5.32769 11.3126C5.32769 10.282 4.52854 9.44653 3.54275 9.44653C2.55696 9.44653 1.75781 10.282 1.75781 11.3126C1.75781 12.3432 2.55696 13.1787 3.54275 13.1787Z" fill="#A169F7"/>
<path d="M10.7494 6.35725C12.1125 6.35725 13.2176 5.20198 13.2176 3.77689C13.2176 2.3518 12.1125 1.19653 10.7494 1.19653C9.38629 1.19653 8.28125 2.3518 8.28125 3.77689C8.28125 5.20198 9.38629 6.35725 10.7494 6.35725Z" fill="#FF6163"/>
<path d="M3.54202 7.07146C5.28249 7.07146 6.69342 5.5964 6.69342 3.77682C6.69342 1.95724 5.28249 0.482178 3.54202 0.482178C1.80155 0.482178 0.390625 1.95724 0.390625 3.77682C0.390625 5.5964 1.80155 7.07146 3.54202 7.07146Z" fill="#00AAFF"/>
<path d="M24.5536 13.1569H26.5442L22.8576 2.6626H21.4138L17.7266 13.1572H19.7173L20.4214 11.154H23.8495L24.5536 13.1572L20.9758 9.57474L22.1356 6.27474L23.2947 9.57474H20.9758L24.5536 13.1569ZM31.4788 5.99224L29.6469 11.2055L27.8158 5.99224H25.9455L28.4635 13.1569H30.8306L33.3483 5.99224H31.4784M34.1311 5.99224H36.0014V13.1569H34.1311V5.99224Z" fill="white"/>
<path d="M35.0733 5.1785C35.7384 5.1785 36.2775 4.61486 36.2775 3.91957C36.2775 3.22429 35.7384 2.66064 35.0733 2.66064C34.4083 2.66064 33.8691 3.22429 33.8691 3.91957C33.8691 4.61486 34.4083 5.1785 35.0733 5.1785Z" fill="white"/>
<path d="M42.6064 7.57123V5.9923H40.3659V4.01587H38.4968V5.9923H37.0176V7.57123H38.4968V10.6537C38.4968 12.2437 39.2572 13.305 41.1989 13.305C41.9488 13.305 42.6064 13.0171 42.6064 13.0171L42.3792 11.4702C42.3792 11.4702 42.0111 11.5852 41.5585 11.5852C41.0037 11.5852 40.3659 11.3352 40.3659 10.5334V7.57105L42.6064 7.57123ZM46.8954 11.5193C45.8526 11.5193 45.0076 10.655 45.0076 9.5889C45.0076 8.52373 45.8526 7.65926 46.895 7.65926C47.9382 7.65926 48.7828 8.5239 48.7828 9.58908C48.7828 10.6552 47.9382 11.5193 46.8954 11.5193ZM46.8954 5.80944C44.8682 5.80944 43.2242 7.49069 43.2242 9.56301C43.2242 11.6362 44.8682 13.3166 46.8952 13.3166C48.9213 13.3166 50.5653 11.6362 50.5653 9.56301C50.5653 7.49069 48.9213 5.80944 46.895 5.80944" fill="white"/>
</svg>
