<svg width="20" height="18" viewBox="0 0 20 18" fill="none" xmlns="http://www.w3.org/2000/svg">
<path fill-rule="evenodd" clip-rule="evenodd" d="M1.36937 7.86274C6.73698 5.53427 10.3103 3.98705 12.1046 3.23643C17.2115 1.10709 18.285 0.73944 18.9751 0.724121C19.1285 0.724121 19.4659 0.754759 19.6959 0.938586C19.8799 1.09178 19.926 1.29092 19.9566 1.44411C19.9873 1.5973 20.018 1.919 19.9873 2.1641C19.7112 5.0747 18.515 12.1367 17.9016 15.3843C17.6409 16.763 17.1348 17.2226 16.644 17.2686C15.5705 17.3605 14.7577 16.5639 13.7302 15.8899C12.1046 14.8329 11.1998 14.1741 9.62015 13.1325C7.79516 11.9376 8.97604 11.2789 10.0189 10.2065C10.2949 9.9308 15.0031 5.6415 15.0951 5.25853C15.1104 5.21257 15.1104 5.02874 15.0031 4.93683C14.8957 4.84491 14.7424 4.87555 14.6197 4.90619C14.451 4.93683 11.8745 6.65255 6.85967 10.038C6.12354 10.5436 5.46409 10.7887 4.86598 10.7733C4.20654 10.758 2.94898 10.4057 1.99815 10.0993C0.847949 9.73165 -0.0722116 9.53251 0.00446848 8.88911C0.0504765 8.5521 0.510557 8.21508 1.36937 7.86274Z" fill="white"/>
</svg>
