<svg width="24" height="14" viewBox="0 0 24 14" fill="none" xmlns="http://www.w3.org/2000/svg">
<path fill-rule="evenodd" clip-rule="evenodd" d="M11.7425 13.9413H13.177C13.177 13.9413 13.6102 13.8925 13.8317 13.6488C14.0353 13.4248 14.0288 13.0045 14.0288 13.0045C14.0288 13.0045 14.0008 11.0363 14.894 10.7465C15.7748 10.4608 16.9057 12.6486 18.1042 13.4899C19.0106 14.1264 19.6994 13.9871 19.6994 13.9871L22.9045 13.9413C22.9045 13.9413 24.5811 13.8355 23.7861 12.4876C23.721 12.3775 23.3229 11.4906 21.4029 9.6683C19.393 7.76098 19.6625 8.06956 22.0833 4.77037C23.5576 2.76117 24.1469 1.53461 23.9628 1.0093C23.7873 0.50879 22.7029 0.641004 22.7029 0.641004L19.0942 0.663817C19.0942 0.663817 18.8265 0.626573 18.6282 0.747898C18.4342 0.866544 18.3098 1.14376 18.3098 1.14376C18.3098 1.14376 17.7384 2.69843 16.9769 4.02082C15.37 6.81077 14.7274 6.95845 14.4647 6.78493C13.8536 6.38112 14.0063 5.16304 14.0063 4.29743C14.0063 1.59354 14.4074 0.466189 13.2253 0.17437C12.8331 0.0775862 12.5441 0.0135534 11.5409 0.00309734C10.2532 -0.0102968 9.16355 0.00715918 8.54644 0.316261C8.13588 0.52184 7.81913 0.979832 8.01216 1.00619C8.25073 1.03868 8.79076 1.15525 9.07709 1.55362C9.447 2.06821 9.43407 3.22339 9.43407 3.22339C9.43407 3.22339 9.64662 6.40627 8.93782 6.80153C8.45145 7.07269 7.78414 6.51913 6.3515 3.98789C5.6176 2.69134 5.06328 1.258 5.06328 1.258C5.06328 1.258 4.95654 0.990202 4.76589 0.846841C4.53466 0.67315 4.21157 0.618104 4.21157 0.618104L0.78225 0.641004C0.78225 0.641004 0.267571 0.655694 0.0784334 0.884604C-0.0898297 1.08837 0.0649971 1.50929 0.0649971 1.50929C0.0649971 1.50929 2.7496 7.93173 5.78966 11.1683C8.57746 14.1361 11.7425 13.9413 11.7425 13.9413Z" fill="white"/>
</svg>
